<svg width="74" height="72" viewBox="0 0 74 72" fill="none" xmlns="http://www.w3.org/2000/svg">
<path d="M74 65.8137C74 66.4596 73.7528 67.0311 73.2585 67.528L69.5511 71.2547C69.0568 71.7516 68.4883 72 67.8457 72C67.2031 72 66.6346 71.7516 66.1403 71.2547L37 41.9627L7.85972 71.2547C7.3654 71.7516 6.79693 72 6.15431 72C5.51169 72 4.94322 71.7516 4.4489 71.2547L0.741483 67.528C0.247161 67.0311 0 66.4596 0 65.8137C0 65.1677 0.247161 64.5963 0.741483 64.0994L35.2946 29.3665C35.7889 28.8696 36.3574 28.6211 37 28.6211C37.6426 28.6211 38.2111 28.8696 38.7054 29.3665L73.2585 64.0994C73.7528 64.5963 74 65.1677 74 65.8137ZM74 37.1925C74 37.8385 73.7528 38.4099 73.2585 38.9068L69.5511 42.6335C69.0568 43.1304 68.4883 43.3789 67.8457 43.3789C67.2031 43.3789 66.6346 43.1304 66.1403 42.6335L37 13.3416L7.85972 42.6335C7.3654 43.1304 6.79693 43.3789 6.15431 43.3789C5.51169 43.3789 4.94322 43.1304 4.4489 42.6335L0.741483 38.9068C0.247161 38.4099 0 37.8385 0 37.1925C0 36.5466 0.247161 35.9752 0.741483 35.4783L35.2946 0.745342C35.7889 0.248447 36.3574 0 37 0C37.6426 0 38.2111 0.248447 38.7054 0.745342L73.2585 35.4783C73.7528 35.9752 74 36.5466 74 37.1925Z" fill="black"/>
</svg>
