<svg width="51" height="50" viewBox="0 0 51 50" fill="none" xmlns="http://www.w3.org/2000/svg">
<path d="M16.9449 4.7305e-05C7.63282 4.7305e-05 0 7.63794 0 16.9562C0 26.2744 7.63282 33.9138 16.9449 33.9138C20.712 33.9138 24.2036 32.6623 27.0274 30.5566L30.0665 33.5977C30.036 34.1463 30.1213 34.6951 30.3167 35.2085C30.5122 35.7219 30.8134 36.1884 31.2009 36.5777L43.4692 48.8541C44.2028 49.5878 45.1975 50 46.2346 50C47.2718 50 48.2665 49.5878 49 48.8541L49.8543 47.9992C50.5879 47.2651 51 46.2695 51 45.2314C51 44.1932 50.5879 43.1976 49.8543 42.4635L37.586 30.1883C37.197 29.8001 36.7307 29.4984 36.2174 29.3026C35.7041 29.1068 35.1553 29.0214 34.6068 29.0519L31.3716 25.8145C32.9669 23.2311 33.8912 20.1959 33.8912 16.9561C33.8912 7.6379 26.2569 0 16.9449 0L16.9449 4.7305e-05ZM16.9449 7.82785C22.0296 7.82785 26.0686 11.8684 26.0686 16.9562C26.0686 22.0443 22.0296 26.086 16.9449 26.086C11.8602 26.086 7.8226 22.0443 7.8226 16.9562C7.8226 11.8681 11.8604 7.82785 16.9449 7.82785V7.82785Z" fill="white"/>
</svg>
